# xmcd
#
# Track frame offsets:
#	150
#	22652
#	44032
#	65535
#	85285
#	104837
#	128450
#	151037
#	172162
#	195270
#
# Disc length: 2779 seconds
#
# Revision: 1060763946
# Processed by: cddbd v1.5.2PL0 Copyright (c) Steve Scherf et al.
# Submitted via: EZCDAudioConverter 8.0.2.1
#
DISCID=7b0ad90a
DTITLE=Kiều Nga - Tóc Mây
DYEAR=1988
DGENRE=Miscellaneous
TTITLE0=Mộng phù du
TTITLE1=Tuổi biết buồn
TTITLE2=Như giọt sầu rơi
TTITLE3=Đừng phá vỡ ân tình
TTITLE4=Trên đỉnh mùa đông
TTITLE5=Tóc Mây
TTITLE6=Ai nói yêu em đêm này
TTITLE7=Giấc mơ không đến hai lần
TTITLE8=Bước tình hồng
TTITLE9=Ôi giàn thiên lý
EXTD=
EXTT0=
EXTT1=
EXTT2=
EXTT3=
EXTT4=
EXTT5=
EXTT6=
EXTT7=
EXTT8=
EXTT9=
PLAYORDER=
